<svg id="visual" viewBox="0 0 600 900" width="600" height="900" xmlns="http://www.w3.org/2000/svg" xmlns:xlink="http://www.w3.org/1999/xlink" version="1.1"><rect x="0" y="0" width="600" height="900" fill="#0099DD"></rect><defs><linearGradient id="grad1_0" x1="0%" y1="100%" x2="100%" y2="0%"><stop offset="30%" stop-color="#0099dd" stop-opacity="1"></stop><stop offset="70%" stop-color="#0099dd" stop-opacity="1"></stop></linearGradient></defs><defs><linearGradient id="grad2_0" x1="0%" y1="100%" x2="100%" y2="0%"><stop offset="30%" stop-color="#0099dd" stop-opacity="1"></stop><stop offset="70%" stop-color="#0099dd" stop-opacity="1"></stop></linearGradient></defs><g transform="translate(600, 900)"><path d="M-270.4 0C-210.3 -16.4 -150.1 -32.8 -135.1 -78C-120.1 -123.2 -150.2 -197.3 -135.2 -234.2C-120.2 -271.1 -60.1 -270.7 0 -270.4L0 0Z" fill="#FF9933"></path></g><g transform="translate(0, 0)"><path d="M270.4 0C208 15.1 145.5 30.1 130.8 75.5C116 120.9 149 196.6 135.2 234.2C121.4 271.7 60.7 271.1 0 270.4L0 0Z" fill="#FF9933"></path></g></svg>