<svg id="visual" viewBox="0 0 960 540" width="960" height="540" xmlns="http://www.w3.org/2000/svg" xmlns:xlink="http://www.w3.org/1999/xlink" version="1.1"><rect x="0" y="0" width="960" height="540" fill="#0099DD"></rect><defs><linearGradient id="grad1_0" x1="43.8%" y1="100%" x2="100%" y2="0%"><stop offset="14.444444444444446%" stop-color="#0099dd" stop-opacity="1"></stop><stop offset="85.55555555555554%" stop-color="#0099dd" stop-opacity="1"></stop></linearGradient></defs><defs><linearGradient id="grad2_0" x1="0%" y1="100%" x2="56.3%" y2="0%"><stop offset="14.444444444444446%" stop-color="#0099dd" stop-opacity="1"></stop><stop offset="85.55555555555554%" stop-color="#0099dd" stop-opacity="1"></stop></linearGradient></defs><g transform="translate(960, 540)"><path d="M-162 0C-162.3 -36.2 -162.6 -72.4 -140.3 -81C-118 -89.6 -73.1 -70.8 -46 -79.7C-18.9 -88.6 -9.4 -125.3 0 -162L0 0Z" fill="#FF9933"></path></g><g transform="translate(0, 0)"><path d="M162 0C162.2 36.1 162.4 72.1 140.3 81C118.1 89.9 73.6 71.6 46.5 80.5C19.4 89.5 9.7 125.8 0 162L0 0Z" fill="#FF9933"></path></g></svg>